<mxfile host="app.diagrams.net" modified="2024-01-19T21:58:55.174Z" agent="Mozilla/5.0 (Macintosh; Intel Mac OS X 10_15_7) AppleWebKit/605.1.15 (KHTML, like Gecko) Version/17.1 Safari/605.1.15" version="22.1.21" etag="p-U_ED_FMyBUfsaMpVoS" type="github">
  <diagram name="PÃ¡gina-1" id="fd_WBNv423-dkGz8QVd6">
    <mxGraphModel>
      <root>
        <mxCell id="0" />
        <mxCell id="1" parent="0" />
      </root>
    </mxGraphModel>
  </diagram>
</mxfile>
